<svg width="30" height="30" viewBox="0 0 30 30" fill="none" xmlns="http://www.w3.org/2000/svg">
<path d="M25.1045 13.8915C24.6093 13.8915 24.2093 13.4898 24.2093 12.9963C24.2076 5.52806 16.9887 0.12732 9.81311 2.2658C9.33866 2.40779 8.83997 2.13766 8.69798 1.66321C8.556 1.18877 8.82612 0.690077 9.30057 0.548089C17.6363 -1.9367 25.9997 4.34367 25.9997 12.9946C25.9997 13.4898 25.598 13.8898 25.1045 13.8898V13.8915Z" fill="url(#paint0_linear_409_2582)"/>
<path d="M8.94931 18.1409C7.39783 16.8924 6.50781 15.0362 6.50781 13.0466C6.50781 9.44496 9.43761 6.51343 13.041 6.51343C16.6444 6.51343 19.5742 9.44323 19.5742 13.0466C19.5742 14.9929 18.7153 16.8231 17.2192 18.0699C16.84 18.3867 16.2738 18.3348 15.9569 17.9538C15.6401 17.5729 15.692 17.0084 16.073 16.6915C19.4651 13.8674 17.4721 8.30386 13.041 8.30386C8.60993 8.30386 6.60132 13.9522 10.0731 16.7418C10.4592 17.0517 10.5198 17.6162 10.2099 18.0006C9.89994 18.3867 9.33545 18.4473 8.95104 18.1374L8.94931 18.1409Z" fill="url(#paint1_linear_409_2582)"/>
<path d="M13.0386 22.9234C7.60667 22.9234 3.18945 18.5044 3.18945 13.0742C3.18945 4.7714 12.8689 0.22605 19.2583 5.43459C19.641 5.748 19.6999 6.31076 19.3865 6.69516C19.0731 7.07784 18.5086 7.13671 18.1259 6.8233C12.907 2.56885 4.97989 6.27266 4.97989 13.0725C4.97989 17.5157 8.59539 21.1312 13.0386 21.1312C13.5338 21.1312 13.9338 21.5329 13.9338 22.0264C13.9338 22.5199 13.5321 22.9216 13.0386 22.9216V22.9234Z" fill="url(#paint2_linear_409_2582)"/>
<path d="M17.5424 20.8647C17.2532 20.463 17.3432 19.9037 17.745 19.6145C19.7657 18.1583 21.0955 15.7739 21.0955 13.0727C21.0955 12.5775 21.4973 12.1775 21.9908 12.1775C22.4842 12.1775 22.886 12.5792 22.886 13.0727C22.886 16.3575 21.2704 19.2804 18.7908 21.0673C18.3891 21.3565 17.8298 21.2664 17.5406 20.8647H17.5424Z" fill="url(#paint3_linear_409_2582)"/>
<path d="M13.0386 26.1805C5.84921 26.1805 0 20.3312 0 13.1418C0 12.6466 0.401722 12.2466 0.895217 12.2466C1.38871 12.2466 1.79043 12.6483 1.79043 13.1418C1.79043 19.3442 6.8362 24.3883 13.0369 24.3883C15.6741 24.3883 18.2385 23.4567 20.2558 21.7667C20.635 21.4481 21.1995 21.4983 21.5181 21.8775C21.8367 22.2567 21.7865 22.8212 21.4073 23.1398C19.0679 25.1 16.0949 26.1805 13.0369 26.1805H13.0386Z" fill="url(#paint4_linear_409_2582)"/>
<path fill-rule="evenodd" clip-rule="evenodd" d="M11.205 12.0146C10.5539 13.1401 10.9401 14.5807 12.0673 15.2318C13.1928 15.8829 14.6335 15.4967 15.2846 14.3695C15.9356 13.244 15.5495 11.8033 14.4223 11.1522C13.2967 10.5029 11.8561 10.8873 11.205 12.0146Z" fill="black"/>
<defs>
<linearGradient id="paint0_linear_409_2582" x1="10.5023" y1="1.85369" x2="23.4301" y2="8.44054" gradientUnits="userSpaceOnUse">
<stop stop-color="#FFAE7F"/>
<stop offset="1" stop-color="#FF748F"/>
</linearGradient>
<linearGradient id="paint1_linear_409_2582" x1="6.50781" y1="12.4267" x2="19.5724" y2="12.4267" gradientUnits="userSpaceOnUse">
<stop stop-color="#6F5BCD"/>
<stop offset="1" stop-color="#68DBEC"/>
</linearGradient>
<linearGradient id="paint2_linear_409_2582" x1="6.51405" y1="19.5243" x2="16.1485" y2="4.12553" gradientUnits="userSpaceOnUse">
<stop stop-color="#FF748F"/>
<stop offset="0.94" stop-color="#775CCA"/>
<stop offset="1" stop-color="#6F5BCD"/>
</linearGradient>
<linearGradient id="paint3_linear_409_2582" x1="15.3139" y1="25.0309" x2="24.9483" y2="9.6321" gradientUnits="userSpaceOnUse">
<stop stop-color="#FF748F"/>
<stop offset="1" stop-color="#6F5BCD"/>
</linearGradient>
<linearGradient id="paint4_linear_409_2582" x1="18.6558" y1="23.8602" x2="2.6008" y2="18.0144" gradientUnits="userSpaceOnUse">
<stop stop-color="#68DBEC"/>
<stop offset="1" stop-color="#FFDF6B"/>
</linearGradient>
</defs>
</svg>
