<?xml version="1.0" encoding="UTF-8"?>
<svg version="1.1" xmlns="http://www.w3.org/2000/svg" width="192" height="192">
<path d="M0 0 C1.03769531 0.33902344 2.07539063 0.67804687 3.14453125 1.02734375 C22.21780889 8.05170944 36.26718334 23.04121938 45 41 C49 50.35977337 49 50.35977337 49 55 C39.1 55 29.2 55 19 55 C17.35 51.7 15.7 48.4 14 45 C5.23278552 32.70312774 -6.71518561 26.90472012 -21.37890625 24.4296875 C-37.09139166 22.74939896 -50.45538287 26.50591592 -63.3359375 35.66015625 C-72.03745988 42.71138991 -76.54129714 51.38310586 -79.95703125 61.8984375 C-81 65 -81 65 -83 69 C-91.91 69 -100.82 69 -110 69 C-110 76.26 -110 83.52 -110 91 C-101.09 91 -92.18 91 -83 91 C-80 99 -80 99 -79.11328125 101.58203125 C-74.60126367 114.14965095 -66.04504643 123.9196963 -54.375 130.25 C-38.86809749 137.56346978 -22.9592192 137.67169209 -7 132 C6.31717436 126.11176483 12.00272296 117.82834123 19 105 C28.9 105 38.8 105 49 105 C47.58496447 111.36765987 46.31991026 116.24733662 43.4375 121.875 C43.08671387 122.56408447 42.73592773 123.25316895 42.37451172 123.96313477 C32.08888267 143.46855989 14.94354275 155.55135225 -5.625 162.08984375 C-28.26320701 168.19482319 -53.05671783 164.59366581 -73.21337891 153.06884766 C-90.85148418 142.51683551 -103.54738163 126.10112736 -109.45214844 106.31616211 C-110.05138382 103.78276366 -110.33508525 101.32615165 -110.5703125 98.734375 C-110.6943042 97.39971191 -110.6943042 97.39971191 -110.82080078 96.03808594 C-110.90950439 95.0292334 -110.90950439 95.0292334 -111 94 C-111.7520874 94.00523682 -112.5041748 94.01047363 -113.27905273 94.01586914 C-116.66519342 94.03657227 -120.05132084 94.04963877 -123.4375 94.0625 C-125.21350586 94.07506836 -125.21350586 94.07506836 -127.02539062 94.08789062 C-128.15009766 94.09111328 -129.27480469 94.09433594 -130.43359375 94.09765625 C-131.99678345 94.10551147 -131.99678345 94.10551147 -133.59155273 94.11352539 C-136 94 -136 94 -137 93 C-137.08748207 91.07332493 -137.10697334 89.14348139 -137.09765625 87.21484375 C-137.09443359 86.04501953 -137.09121094 84.87519531 -137.08789062 83.66992188 C-137.07951172 82.43822266 -137.07113281 81.20652344 -137.0625 79.9375 C-137.05798828 78.70193359 -137.05347656 77.46636719 -137.04882812 76.19335938 C-137.03699618 73.12888587 -137.01906008 70.06443707 -137 67 C-124.625 66.505 -124.625 66.505 -112 66 C-111.443125 63.6075 -110.88625 61.215 -110.3125 58.75 C-105.12237358 37.67247464 -93.6391891 19.6434415 -75 8 C-52.40140409 -5.0008393 -24.85870036 -8.58858177 0 0 Z " fill="#ffffff" transform="translate(140,16)"/>
<path d="M0 0 C1.12591553 0.00523682 2.25183105 0.01047363 3.41186523 0.01586914 C4.62680664 0.0190918 5.84174805 0.02231445 7.09350586 0.02563477 C8.37290039 0.03401367 9.65229492 0.04239258 10.97045898 0.05102539 C12.2537207 0.05553711 13.53698242 0.06004883 14.85913086 0.06469727 C18.04211921 0.07652994 21.22501661 0.09301471 24.40795898 0.11352539 C27.24587787 7.64156233 27.24587787 7.64156233 28.29467773 10.69555664 C32.80669532 23.26317634 41.36291255 33.03322169 53.03295898 39.36352539 C68.53986149 46.67699517 84.44873979 46.78521748 100.40795898 41.11352539 C113.72513335 35.22529022 119.41068195 26.94186662 126.40795898 14.11352539 C136.30795898 14.11352539 146.20795898 14.11352539 156.40795898 14.11352539 C154.99292346 20.48118526 153.72786925 25.36086201 150.84545898 30.98852539 C150.49467285 31.67760986 150.14388672 32.36669434 149.7824707 33.07666016 C139.49684165 52.58208528 122.35150173 64.66487764 101.78295898 71.20336914 C79.14475197 77.30834858 54.35124116 73.7071912 34.19458008 62.18237305 C14.67452189 50.5044809 2.45464654 32.38269608 -3.27954102 10.48852539 C-3.6942527 7.33671657 -3.7141132 4.2874023 -3.59204102 1.11352539 C-2.59204102 0.11352539 -2.59204102 0.11352539 0 0 Z " fill="#ffffff" transform="translate(32.592041015625,106.886474609375)"/>
<path d="M0 0 C4.31248609 -0.02886537 8.62494762 -0.04675255 12.9375 -0.0625 C14.16919922 -0.07087891 15.40089844 -0.07925781 16.66992188 -0.08789062 C17.83974609 -0.09111328 19.00957031 -0.09433594 20.21484375 -0.09765625 C21.84087524 -0.10551147 21.84087524 -0.10551147 23.49975586 -0.11352539 C26 0 26 0 27 1 C27.09949077 2.75685674 27.1308026 4.51767333 27.1328125 6.27734375 C27.13474609 7.88319336 27.13474609 7.88319336 27.13671875 9.52148438 C27.13285156 10.64876953 27.12898438 11.77605469 27.125 12.9375 C27.13080078 14.62262695 27.13080078 14.62262695 27.13671875 16.34179688 C27.13542969 17.41365234 27.13414063 18.48550781 27.1328125 19.58984375 C27.13168457 20.57847412 27.13055664 21.56710449 27.12939453 22.58569336 C27 25 27 25 26 27 C21.85418113 27.02886751 17.70838784 27.04675327 13.5625 27.0625 C11.78649414 27.07506836 11.78649414 27.07506836 9.97460938 27.08789062 C8.84990234 27.09111328 7.72519531 27.09433594 6.56640625 27.09765625 C5.00321655 27.10551147 5.00321655 27.10551147 3.40844727 27.11352539 C1 27 1 27 0 26 C-0.08748207 24.07332493 -0.10697334 22.14348139 -0.09765625 20.21484375 C-0.09443359 19.04501953 -0.09121094 17.87519531 -0.08789062 16.66992188 C-0.07951172 15.43822266 -0.07113281 14.20652344 -0.0625 12.9375 C-0.05798828 11.70193359 -0.05347656 10.46636719 -0.04882812 9.19335938 C-0.03699608 6.12885883 -0.02051173 3.06445279 0 0 Z " fill="#00BCBC" transform="translate(3,83)"/>
</svg>
