<?xml version="1.0" encoding="UTF-8"?>
<svg version="1.1" xmlns="http://www.w3.org/2000/svg" width="192" height="192">
<path d="M0 0 C1.084021 0.00523682 2.16804199 0.01047363 3.28491211 0.01586914 C5.03964844 0.02070312 5.03964844 0.02070312 6.82983398 0.02563477 C8.0615332 0.03401367 9.29323242 0.04239258 10.56225586 0.05102539 C12.41560547 0.05779297 12.41560547 0.05779297 14.30639648 0.06469727 C17.37089703 0.07652931 20.43530307 0.09301366 23.49975586 0.11352539 C23.61143385 10.38790054 23.4799707 20.60032627 22.85546875 30.85864258 C22.47970314 37.28081851 22.45030923 43.68134302 22.49975586 50.11352539 C22.95189453 49.33976562 23.4040332 48.56600586 23.86987305 47.76879883 C39.13107817 21.66308809 39.13107817 21.66308809 46.49975586 9.36352539 C46.99701172 8.53175781 47.49426758 7.69999023 48.0065918 6.84301758 C48.68383301 5.71621582 48.68383301 5.71621582 49.37475586 4.56665039 C49.76405273 3.91857422 50.15334961 3.27049805 50.55444336 2.6027832 C51.49975586 1.11352539 51.49975586 1.11352539 52.49975586 0.11352539 C54.64534413 0.02576934 56.79380007 0.0065732 58.94116211 0.01586914 C60.24633789 0.0190918 61.55151367 0.02231445 62.89624023 0.02563477 C64.28491276 0.03399138 65.67358463 0.04245634 67.06225586 0.05102539 C68.45483242 0.05603873 69.84741067 0.06060193 71.23999023 0.06469727 C74.65995456 0.07653105 78.0798343 0.09301659 81.49975586 0.11352539 C80.91432216 17.11745655 80.27390549 34.11708263 79.49975586 51.11352539 C79.92160156 50.31470947 80.34344727 49.51589355 80.77807617 48.69287109 C89.42538839 32.34016089 98.22050419 16.12023451 107.49975586 0.11352539 C115.74975586 0.11352539 123.99975586 0.11352539 132.49975586 0.11352539 C131.17391433 4.09104996 130.16759519 7.00888296 128.20678711 10.52758789 C127.74925049 11.35637451 127.29171387 12.18516113 126.8203125 13.0390625 C126.32265381 13.92988525 125.82499512 14.82070801 125.31225586 15.73852539 C124.22255776 17.71054306 123.13407437 19.68323231 122.04663086 21.65649414 C121.46977539 22.70240723 120.89291992 23.74832031 120.29858398 24.82592773 C117.49475232 29.95030303 114.7565356 35.10930874 112.01260376 40.26593018 C106.6784063 50.28547182 101.21302727 60.21662606 95.57666016 70.06982422 C89.88307217 80.08575587 84.51618649 90.27395226 79.14672852 100.46606445 C78.79390808 101.13493683 78.44108765 101.8038092 78.07757568 102.49295044 C77.11501195 104.31893895 76.15471945 106.14612422 75.19458008 107.97338867 C74.63528809 109.00963379 74.07599609 110.04587891 73.49975586 111.11352539 C73.12828934 111.9915834 72.75682281 112.86964142 72.37409973 113.77430725 C70.49975586 116.11352539 70.49975586 116.11352539 67.10188293 116.71479797 C65.67309475 116.72929842 64.24386692 116.71598085 62.81542969 116.68115234 C62.03470596 116.68188248 61.25398224 116.68261261 60.44960022 116.68336487 C57.86795668 116.67988018 55.28811554 116.64098019 52.70678711 116.60180664 C50.91746507 116.59248158 49.12813026 116.58536402 47.33879089 116.58036804 C42.62843602 116.56127392 37.91885163 116.51215265 33.20880127 116.45684814 C28.40289738 116.4057075 23.59686902 116.38286511 18.79077148 116.35766602 C9.36009435 116.304036 -0.07001084 116.21869421 -9.50024414 116.11352539 C-9.76885876 92.58826097 -9.44086799 69.43660987 -7.14875793 46.01246643 C-6.58168587 40.16583784 -6.10996395 34.3146172 -5.66821289 28.45727539 C-5.56777931 27.13212166 -5.56777931 27.13212166 -5.46531677 25.78019714 C-5.20315577 22.30927663 -4.94239574 18.83826682 -4.68685913 15.36685181 C-4.51155127 12.99692341 -4.33067951 10.62747919 -4.14868164 8.25805664 C-4.09773849 7.54641357 -4.04679535 6.83477051 -3.99430847 6.1015625 C-3.53068095 0.16031312 -3.53068095 0.16031312 0 0 Z M47.49975586 57.11352539 C46.01510316 59.34206068 44.5904696 61.58403976 43.18725586 63.86352539 C42.74720215 64.5729126 42.30714844 65.2822998 41.85375977 66.01318359 C37.78954927 72.58964723 33.81260239 79.21844194 29.84912109 85.85595703 C26.23760812 91.90222431 22.56117083 97.90349778 18.82788086 103.87524414 C17.41470653 105.82308251 17.41470653 105.82308251 17.49975586 107.11352539 C26.73975586 107.11352539 35.97975586 107.11352539 45.49975586 107.11352539 C45.93154497 101.9217754 46.36024087 96.72994486 46.78149414 91.53735352 C46.92525989 89.77614274 47.07072511 88.01506973 47.21801758 86.25415039 C48.03054153 76.5259725 48.76669683 66.88653095 48.49975586 57.11352539 C48.16975586 57.11352539 47.83975586 57.11352539 47.49975586 57.11352539 Z " fill="#37A93C" transform="translate(39.500244140625,37.886474609375)"/>
</svg>
