<?xml version="1.0" encoding="UTF-8"?>
<svg version="1.1" xmlns="http://www.w3.org/2000/svg" width="512" height="512">
<path d="M0 0 C3.03376199 1.52362422 6.01946493 3.12509387 9 4.75 C9.80904785 5.18393066 10.6180957 5.61786133 11.45166016 6.06494141 C15.9648982 8.48619153 20.45859852 10.94086929 24.94140625 13.41796875 C30.92644635 16.72084248 36.94688833 19.95537869 42.97598267 23.17700195 C44.74894515 24.12443631 46.52140247 25.07280897 48.29370117 26.02148438 C53.06852472 28.57722234 57.84383334 31.13205068 62.62011719 33.68505859 C66.12331403 35.557948 69.62418734 37.43515773 73.125 39.3125 C74.17268555 39.87179199 75.22037109 40.43108398 76.29980469 41.00732422 C100.06967553 53.76835575 100.06967553 53.76835575 104.36225128 65.51672554 C105.40215557 69.15827217 105.38275412 72.64627911 105.32128906 76.40991211 C105.32023666 77.23543076 105.31918427 78.0609494 105.31809998 78.91148376 C105.31451366 80.69021388 105.30442785 82.46894068 105.28842926 84.24760246 C105.26527865 87.0695618 105.26432903 89.89074256 105.26971436 92.71278381 C105.28233857 100.73116649 105.26541999 108.74913036 105.20947266 116.76733398 C105.17671814 121.68518214 105.1781123 126.6020687 105.20049286 131.5199604 C105.20223408 133.38537483 105.19107053 135.25085026 105.16638947 137.11610222 C104.67666691 148.89028785 104.67666691 148.89028785 109.43164062 159.27490234 C110.6012507 160.45330063 111.78806588 161.61517581 113 162.75 C122.31377711 177.58661602 123.55276709 192.8579747 119.8515625 209.55078125 C119.09097811 212.40820608 118.16998533 215.03868617 117 217.75 C117.66 217.8325 118.32 217.915 119 218 C127.83938348 220.20984587 133.63711082 225.50166365 140 231.75 C140.98033203 232.69359375 140.98033203 232.69359375 141.98046875 233.65625 C147.75089452 239.66870245 151.33010166 247.33166234 153.77319336 255.25878906 C155.33478658 258.42983328 156.74466741 259.10950324 159.890625 260.66015625 C160.89859131 261.16861084 161.90655762 261.67706543 162.94506836 262.20092773 C164.0356958 262.73274658 165.12632324 263.26456543 166.25 263.8125 C168.54916447 264.96939395 170.84732475 266.12828552 173.14453125 267.2890625 C174.30162598 267.86946289 175.4587207 268.44986328 176.65087891 269.04785156 C182.3682385 271.95362727 187.97593881 275.05242599 193.58984375 278.15185547 C198.6302219 280.92788744 203.6941654 283.64427376 208.80078125 286.296875 C209.95650635 286.90281494 211.11223145 287.50875488 212.30297852 288.13305664 C214.5277924 289.29769999 216.75840089 290.45137108 218.99584961 291.59155273 C227.44987544 296.04163314 236.59546006 301.29934149 240.37639999 310.52161503 C241.70002771 315.2514933 241.43238334 320.16835352 241.41992188 325.04418945 C241.42839142 326.26785217 241.43686096 327.49151489 241.44558716 328.7522583 C241.46492102 332.09349836 241.47073821 335.43417875 241.46883965 338.77543664 C241.46871951 341.5733469 241.47730127 344.37120559 241.48561716 347.16910142 C241.50482089 353.77577419 241.50774656 360.38232064 241.50097656 366.98901367 C241.49434166 373.78347205 241.51718428 380.57738675 241.55429029 387.37173492 C241.58507744 393.22339557 241.59633751 399.07488216 241.59245348 404.92662209 C241.5903948 408.41350622 241.59572675 411.89996731 241.62034607 415.38677406 C241.64693316 419.28060461 241.63281669 423.17373406 241.61523438 427.06762695 C241.63512924 428.77851753 241.63512924 428.77851753 241.65542603 430.52397156 C241.57064092 438.63447098 239.8867944 445.39489017 234.37091827 451.57536793 C229.79230493 455.92796818 224.03732213 458.58052933 218.4375 461.375 C216.36626986 462.43179717 214.29597873 463.49043648 212.2265625 464.55078125 C210.66083496 465.35056396 210.66083496 465.35056396 209.06347656 466.16650391 C204.43846102 468.55715188 199.87398082 471.05328472 195.3125 473.5625 C186.35534343 478.47768585 177.36126572 483.32131636 168.34979248 488.13595581 C161.88498859 491.59014446 155.42646262 495.05500004 148.98828125 498.55859375 C147.88403809 499.15937744 146.77979492 499.76016113 145.64208984 500.37915039 C143.55141487 501.51814298 141.46184263 502.65916269 139.37353516 503.80249023 C138.44460449 504.30852783 137.51567383 504.81456543 136.55859375 505.3359375 C135.34127563 506.00181885 135.34127563 506.00181885 134.09936523 506.68115234 C127.9004519 509.8371987 120.7711857 509.82596962 114 508.75 C111.33749236 507.82885027 108.92745582 506.57675838 106.45703125 505.23046875 C105.42861618 504.69302032 105.42861618 504.69302032 104.37942505 504.14471436 C102.2457911 503.02613975 100.12311295 501.88838805 98 500.75 C96.68976711 500.06219752 95.37867163 499.37603533 94.06665039 498.69165039 C90.15842534 496.64826055 86.26578463 494.57635842 82.375 492.5 C80.96649048 491.75012683 79.55796153 491.00029017 78.14941406 490.25048828 C69.46929611 485.62505659 60.811933 480.95967114 52.1940918 476.21899414 C47.07029865 473.40488264 41.92044329 470.64570758 36.74609375 467.92578125 C34.84821475 466.92401017 32.95063495 465.9216742 31.05310059 464.91925049 C29.83172137 464.27651396 28.60871208 463.63686325 27.38391113 463.00067139 C7.08675567 452.45604472 7.08675567 452.45604472 3 442.75 C2.44863434 440.05020951 2.19370141 437.51024514 2 434.75 C1.12085938 434.51539063 0.24171875 434.28078125 -0.6640625 434.0390625 C-4.39113184 432.59886006 -6.48528783 430.85851151 -9.375 428.125 C-10.24898438 427.30773437 -11.12296875 426.49046875 -12.0234375 425.6484375 C-12.67570312 425.02195312 -13.32796875 424.39546875 -14 423.75 C-17.1683377 425.15815009 -19.36613705 426.87212186 -21.875 429.25 C-25.08471934 432.14115169 -27.70717439 433.78411424 -32 434.75 C-32.04125 435.884375 -32.0825 437.01875 -32.125 438.1875 C-32.91534249 444.22187171 -35.8852567 449.31589079 -40.69262695 453.07275391 C-47.15269151 457.56070284 -54.13675507 461.14259431 -61.09509277 464.78082275 C-64.68190019 466.65646293 -68.26019014 468.54825382 -71.83984375 470.4375 C-72.54895905 470.81117706 -73.25807434 471.18485413 -73.98867798 471.56985474 C-79.77109433 474.61974756 -85.51923216 477.72909088 -91.25 480.875 C-99.0397855 485.14318265 -106.84648685 489.3789214 -114.67224121 493.58074951 C-116.42708441 494.52333459 -118.18085113 495.46792294 -119.93457031 496.41259766 C-123.28172826 498.20728769 -126.63872219 499.98191086 -130 501.75 C-130.60418762 502.07273895 -131.20837524 502.39547791 -131.83087158 502.72799683 C-133.67560594 503.71061475 -135.5280411 504.67711204 -137.3828125 505.640625 C-138.47480957 506.21458008 -139.56680664 506.78853516 -140.69189453 507.37988281 C-147.17976613 510.06696292 -154.1871829 510.56871973 -160.85266113 508.04989624 C-162.77794717 507.15995762 -164.645548 506.19985256 -166.515625 505.19921875 C-167.54993149 504.66368881 -167.54993149 504.66368881 -168.60513306 504.11734009 C-170.74307948 503.00651586 -172.87184066 501.87943984 -175 500.75 C-176.29015091 500.07439459 -177.58066675 499.39948553 -178.87158203 498.7253418 C-182.71623453 496.71086493 -186.54632935 494.66964492 -190.375 492.625 C-191.7715927 491.88100132 -193.16824091 491.13710684 -194.56494141 490.39331055 C-205.2732085 484.68698907 -215.96405911 478.94843573 -226.63671875 473.17578125 C-230.5255683 471.07496435 -234.42356066 468.99325048 -238.33459473 466.93400574 C-240.12965046 465.98830847 -241.92275169 465.03900288 -243.71533203 464.08862305 C-245.96123578 462.89934579 -248.21069667 461.71675155 -250.46435547 460.54223633 C-260.40710377 455.25862361 -267.05302902 450.65391598 -271 439.75 C-271.66915469 435.51392386 -271.67506027 431.36564507 -271.63110352 427.08349609 C-271.63825882 425.85618271 -271.64541412 424.62886932 -271.65278625 423.36436462 C-271.66671199 420.02718207 -271.65845693 416.69157054 -271.63869596 413.35451841 C-271.62219562 409.84690278 -271.63113771 406.3393338 -271.63621521 402.83169556 C-271.64072238 396.94593531 -271.62494949 391.0604943 -271.59692383 385.17480469 C-271.56484802 378.38653244 -271.56490352 371.59883467 -271.5821386 364.81052148 C-271.59804185 358.25585748 -271.59124778 351.70140253 -271.57420158 345.14674759 C-271.56735955 342.36779789 -271.56833387 339.58901719 -271.57574654 336.81007004 C-271.58488151 332.92573148 -271.56079232 329.04197566 -271.53344727 325.15771484 C-271.53997314 324.01464371 -271.54649902 322.87157257 -271.55322266 321.69386292 C-271.4554768 313.51171887 -269.92557172 307.0922621 -263.91015625 301.10546875 C-259.62202518 297.08370951 -254.67983718 294.63251628 -249.4375 292.0625 C-247.36622922 291.01491338 -245.29593898 289.96538612 -243.2265625 288.9140625 C-241.66083496 288.12370605 -241.66083496 288.12370605 -240.06347656 287.31738281 C-235.43021973 284.94684497 -230.87036471 282.44918337 -226.3125 279.9375 C-220.06538896 276.50095488 -213.80068024 273.10276314 -207.5 269.765625 C-206.21181544 269.0818196 -204.92364808 268.39798178 -203.63549805 267.71411133 C-201.73659539 266.70624406 -199.83681136 265.70027469 -197.93374634 264.70028687 C-196.16814556 263.77243589 -194.40625941 262.83752685 -192.64453125 261.90234375 C-191.62721924 261.36601318 -190.60990723 260.82968262 -189.56176758 260.27709961 C-184.97736728 257.54428498 -183.55257744 255.08572143 -181.6875 250.125 C-177.41764499 239.50806322 -171.07338111 230.37485007 -161.5 224 C-160.66662109 223.42185547 -160.66662109 223.42185547 -159.81640625 222.83203125 C-155.65785759 220.00421816 -152.09788387 217.75 -147 217.75 C-147.27714844 216.95335937 -147.55429688 216.15671875 -147.83984375 215.3359375 C-148.20207031 214.27632812 -148.56429687 213.21671875 -148.9375 212.125 C-149.29714844 211.08085937 -149.65679687 210.03671875 -150.02734375 208.9609375 C-154.74730921 193.37936477 -151.1803227 178.15730379 -144.01171875 164.00390625 C-142.37990126 161.36448107 -141.03987599 159.73255753 -138.91860962 157.57978821 C-135.43380715 153.5428673 -135.16453211 150.41645163 -135.29052734 145.21948242 C-135.28632278 144.39571609 -135.28211823 143.57194977 -135.27778625 142.72322083 C-135.27011482 140.016543 -135.30360183 137.31193685 -135.3359375 134.60546875 C-135.33484257 132.71128397 -135.33052851 130.81709858 -135.32315063 128.92292786 C-135.30976391 123.94364949 -135.32853479 118.96509441 -135.35760498 113.98590088 C-135.40301238 106.02845334 -135.41848129 98.0714017 -135.39805984 90.11385536 C-135.39843022 87.34732974 -135.42410853 84.58184387 -135.45175171 81.81547546 C-135.48946708 71.36734056 -135.18232441 62.52055176 -128.19140625 54.13671875 C-122.6275905 49.08394103 -115.58090663 45.95349719 -108.9375 42.5625 C-107.48717837 41.80960102 -106.03764096 41.05518958 -104.58886719 40.29931641 C-101.71036782 38.79796298 -98.82943299 37.30146086 -95.94677734 35.80810547 C-90.84032805 33.15465708 -85.79054522 30.40123031 -80.75 27.625 C-68.94068215 21.14848842 -57.06711809 14.79333582 -45.18554688 8.45068359 C-43.17333388 7.37641354 -41.16155665 6.30132649 -39.15039062 5.22509766 C-36.74737431 3.93931267 -34.3428039 2.65649911 -31.9375 1.375 C-31.25969482 1.01188721 -30.58188965 0.64877441 -29.88354492 0.2746582 C-19.82775506 -5.06471095 -10.10759754 -4.89042553 0 0 Z M-87.91796875 228.46875 C-88.66691406 229.0565625 -89.41585937 229.644375 -90.1875 230.25 C-94.03979882 233.13758344 -97.54843493 234.96719982 -102 236.75 C-101.71125 237.63558594 -101.4225 238.52117187 -101.125 239.43359375 C-98.13112504 249.42357234 -97.54217538 258.35992463 -98 268.75 C-89.4040257 273.80740593 -80.65944787 278.56625718 -71.85958862 283.25775146 C-67.6210293 285.519383 -63.38854309 287.79238605 -59.15478516 290.06298828 C-56.54932968 291.45624763 -53.93787132 292.8370814 -51.32421875 294.21484375 C-43.13378026 298.60734712 -35.81483693 303.46705876 -33 312.75 C-32.78182086 316.33418798 -32.89046427 319.90404534 -32.97265625 323.4921875 C-32.9864611 325.63149451 -32.99744121 327.77082127 -33.00585938 329.91015625 C-33.02624922 333.27128771 -33.06259065 336.62859929 -33.1472168 339.98876953 C-34.06111826 352.58736317 -34.06111826 352.58736317 -29.59204102 363.71411133 C-26.76632332 365.49029672 -24.12630622 366.61857218 -21 367.75 C-19.08303857 369.29383584 -17.62713077 370.8984374 -16 372.75 C-12.04023116 370.98130325 -9.33197042 368.44372936 -6.1953125 365.50390625 C-3.63423858 363.45778136 -0.94169886 362.17870331 2 360.75 C2.00364563 360.16641724 2.00729126 359.58283447 2.01104736 358.98156738 C2.05301357 352.88119364 2.12245737 346.78156239 2.20751953 340.68164062 C2.2356616 338.40827884 2.25690961 336.13482045 2.27099609 333.86132812 C2.29251882 330.5841347 2.33921885 327.30809469 2.390625 324.03125 C2.39185364 323.02259888 2.39308228 322.01394775 2.39434814 320.97473145 C2.54436598 313.66814256 4.05002003 308.52514597 8.56494141 302.74731445 C14.73815149 297.37319313 21.87056327 293.80962393 29.11062622 290.09838867 C31.40132512 288.92400376 33.68477858 287.73654499 35.96655273 286.54492188 C38.95736897 284.98303321 41.94992818 283.42458313 44.94384766 281.86865234 C50.01799417 279.22515686 55.05442888 276.51661114 60.0625 273.75 C60.78034668 273.35965576 61.49819336 272.96931152 62.23779297 272.56713867 C65.7198951 270.78313107 65.7198951 270.78313107 68 267.75 C67.99582212 265.98066777 67.98563111 264.21100404 67.93530273 262.44238281 C67.71559593 254.682374 68.50040884 248.15811474 71 240.75 C71.34047825 239.41847326 71.67491988 238.08536954 72 236.75 C70.86820313 236.18410156 69.73640625 235.61820313 68.5703125 235.03515625 C63.71354167 232.60677083 58.85677083 230.17838542 54 227.75 C51.47001764 228.81298366 51.47001764 228.81298366 48.59375 230.44140625 C47.46952637 231.05008545 46.34530273 231.65876465 45.18701172 232.28588867 C43.95800472 232.96142015 42.72900089 233.6369574 41.5 234.3125 C40.24151134 234.99605198 38.98255365 235.67874111 37.72314453 236.3605957 C33.81050274 238.4814087 29.90503149 240.61521663 26 242.75 C22.41043122 244.71043342 18.81924977 246.667772 15.22460938 248.61889648 C13.04843612 249.80040629 10.87508312 250.98713083 8.70507812 252.17993164 C-9.94973538 262.3187445 -9.94973538 262.3187445 -20 260.75 C-27.27046932 258.43877558 -34.03292692 254.81372044 -40.75 251.25 C-41.73572998 250.73171631 -42.72145996 250.21343262 -43.73706055 249.67944336 C-51.6902507 245.48254094 -59.5933129 241.1939062 -67.46582031 236.84765625 C-69.14069357 235.9253551 -70.81970696 235.01052426 -72.50317383 234.10400391 C-74.24041508 233.16191532 -75.96343047 232.1933122 -77.67456055 231.20458984 C-82.53593881 228.28074756 -82.53593881 228.28074756 -87.91796875 228.46875 Z " fill="#020100" transform="translate(271,3.25)"/>
<path d="M0 0 C0.07010965 14.25582865 0.12279822 28.51163053 0.15543652 42.76759624 C0.17110031 49.38703575 0.19235193 56.00635953 0.22631836 62.62573242 C0.25888586 69.01236422 0.27684764 75.39888462 0.28463173 81.78559303 C0.29017989 84.22367926 0.3010139 86.66175932 0.31719017 89.0997982 C0.33892927 92.51157235 0.34196833 95.92288466 0.34057617 99.3347168 C0.351362 100.34532166 0.36214783 101.35592651 0.3732605 102.39715576 C0.33493784 111.06186621 0.33493784 111.06186621 -3 115 C-5.74536133 116.84594727 -5.74536133 116.84594727 -9.08203125 118.56640625 C-9.6836055 118.88170288 -10.28517975 119.19699951 -10.90498352 119.52185059 C-12.86806608 120.54762271 -14.84009958 121.55477988 -16.8125 122.5625 C-18.18616912 123.27705737 -19.55904726 123.99313727 -20.93115234 124.71069336 C-23.68009716 126.14765835 -26.43164653 127.57942837 -29.18505859 129.0078125 C-34.20504398 131.61992848 -39.16815798 134.33284953 -44.125 137.0625 C-53.83843208 142.38868632 -63.60047153 147.62247503 -73.37353516 152.83813477 C-75.05455322 153.73616821 -75.05455322 153.73616821 -76.76953125 154.65234375 C-77.83381348 155.22065918 -78.8980957 155.78897461 -79.99462891 156.37451172 C-83.46014344 158.24887368 -86.8879111 160.1840091 -90.29956055 162.15454102 C-92 163 -92 163 -94 163 C-94 125.71 -94 88.42 -94 50 C-69.13783141 36.43881713 -69.13783141 36.43881713 -57.92089844 30.51489258 C-42.92106022 22.58983825 -27.92251513 14.6480411 -13.171875 6.265625 C-12.42164063 5.83958984 -11.67140625 5.41355469 -10.8984375 4.97460938 C-9.51048169 4.18347457 -8.12488186 3.38818551 -6.7421875 2.58789062 C-2.2170204 0 -2.2170204 0 0 0 Z " fill="#FEDE00" transform="translate(495,328)"/>
<path d="M0 0 C3.34910103 1.32130356 6.55308313 2.73305195 9.74609375 4.3984375 C10.65399658 4.8713623 11.56189941 5.34428711 12.49731445 5.83154297 C13.9527063 6.5955542 13.9527063 6.5955542 15.4375 7.375 C16.45739014 7.90883301 17.47728027 8.44266602 18.52807617 8.99267578 C27.15404856 13.5234224 35.7112753 18.17394727 44.25390625 22.859375 C51.57475523 26.87086892 58.93243926 30.81393908 66.29223633 34.75341797 C75.58480106 39.74083872 84.7768635 44.87603528 94 50 C94 87.29 94 124.58 94 163 C90.02247543 161.67415848 87.10464244 160.66783933 83.5859375 158.70703125 C82.75755371 158.24965576 81.92916992 157.79228027 81.07568359 157.32104492 C80.18445801 156.8232251 79.29323242 156.32540527 78.375 155.8125 C76.39640655 154.72031508 74.41721083 153.62922072 72.4375 152.5390625 C70.86742188 151.6732959 70.86742188 151.6732959 69.265625 150.79003906 C63.65696199 147.71567324 58.01561805 144.70271404 52.375 141.6875 C50.63101929 140.75333252 50.63101929 140.75333252 48.85180664 139.80029297 C43.31899756 136.83726307 37.78228052 133.8819006 32.23626709 130.94364929 C29.70245499 129.60058768 27.17050981 128.25402839 24.63873291 126.90713501 C22.86889064 125.9674405 21.09635219 125.0328295 19.32373047 124.09838867 C1.54551818 114.63655454 1.54551818 114.63655454 0 110 C-0.08903619 108.48982826 -0.12197948 106.97600422 -0.12025452 105.46321106 C-0.12162918 104.53353012 -0.12300385 103.60384918 -0.12442017 102.64599609 C-0.12082489 101.62820068 -0.11722961 100.61040527 -0.11352539 99.56176758 C-0.11367142 98.48843674 -0.11381744 97.4151059 -0.1139679 96.30924988 C-0.1132701 92.75432325 -0.10548386 89.19944874 -0.09765625 85.64453125 C-0.0957916 83.18259205 -0.09436792 80.72065247 -0.09336853 78.25871277 C-0.08954706 71.77319314 -0.07971991 65.28769585 -0.06866455 58.80218506 C-0.05844249 52.18648582 -0.0538692 45.57078298 -0.04882812 38.95507812 C-0.03809734 25.97004255 -0.02121706 12.98502246 0 0 Z " fill="#FE9700" transform="translate(17,328)"/>
<path d="M0 0 C2.40699554 1.00866629 4.54903557 2.03600416 6.8125 3.296875 C7.77494629 3.81365814 7.77494629 3.81365814 8.75683594 4.34088135 C10.84447073 5.46554811 12.92205947 6.60753716 15 7.75 C16.45643534 8.53886161 17.9134725 9.32661307 19.37109375 10.11328125 C22.95384908 12.05060087 26.52888617 14.00161312 30.10058594 15.95922852 C32.68981446 17.37797931 35.28242365 18.79050327 37.875 20.203125 C40.42129052 21.59166431 42.96667887 22.98170693 45.5090332 24.37744141 C55.44203822 29.82117885 65.4619964 35.10262268 75.47851562 40.390625 C76.15328445 40.74760468 76.82805328 41.10458435 77.52326965 41.47238159 C78.79573139 42.14556104 80.06887853 42.81744705 81.34281921 43.48782349 C83.99302947 44.89097646 86.50116157 46.33410772 89 48 C89 48.66 89 49.32 89 50 C88.14583496 50.45213867 87.29166992 50.90427734 86.41162109 51.37011719 C71.96849794 59.01782623 57.52755629 66.66554049 43.19799805 74.5246582 C34.37425266 79.35862256 25.50204011 84.10141714 16.62597656 88.83837891 C15.50545898 89.4369873 14.38494141 90.0355957 13.23046875 90.65234375 C12.16103027 91.21808105 11.0915918 91.78381836 9.98974609 92.36669922 C8.09483411 93.40189121 6.22340251 94.48234155 4.38916016 95.62158203 C-1.23129042 99.09431397 -1.23129042 99.09431397 -4.9609375 98.63671875 C-5.96382813 98.09660156 -6.96671875 97.55648437 -8 97 C-8.68352539 96.64760254 -9.36705078 96.29520508 -10.07128906 95.93212891 C-12.61478554 94.60206791 -15.11918601 93.21222142 -17.625 91.8125 C-19.60098036 90.72160114 -21.57757259 89.63181004 -23.5546875 88.54296875 C-24.60108398 87.96595215 -25.64748047 87.38893555 -26.72558594 86.79443359 C-32.37825337 83.69667744 -38.06471816 80.66235857 -43.75 77.625 C-46.1186575 76.35838675 -48.48707257 75.09132054 -50.85546875 73.82421875 C-51.44387039 73.50948608 -52.03227203 73.19475342 -52.63850403 72.8704834 C-59.11879906 69.40327542 -65.5913523 65.92174841 -72.0625 62.4375 C-73.10180664 61.87820801 -74.14111328 61.31891602 -75.21191406 60.74267578 C-81.81992562 57.1836089 -88.41456445 53.60066397 -95 50 C-95 49.34 -95 48.68 -95 48 C-93.93193115 47.42838135 -93.93193115 47.42838135 -92.84228516 46.84521484 C-78.83127701 39.34563956 -64.82580351 31.83615683 -50.8371582 24.29492188 C-45.02763574 21.16436526 -39.21400891 18.04168704 -33.39453125 14.9296875 C-32.75957733 14.59003967 -32.12462341 14.25039185 -31.47042847 13.90045166 C-28.39699369 12.25655227 -25.32300018 10.61371342 -22.24804688 8.97265625 C-21.14138672 8.38097656 -20.03472656 7.78929687 -18.89453125 7.1796875 C-17.86021973 6.62893555 -16.8259082 6.07818359 -15.76025391 5.51074219 C-13.47856795 4.26192982 -11.27971589 2.94580976 -9.07421875 1.5703125 C-5.54258804 -0.23364626 -3.91912667 -0.36868492 0 0 Z " fill="#FDE939" transform="translate(259,17)"/>
<path d="M0 0 C4.26618132 1.42206044 7.51190182 2.66611905 11.359375 4.765625 C12.37902344 5.31863281 13.39867187 5.87164062 14.44921875 6.44140625 C15.53847656 7.03824219 16.62773437 7.63507813 17.75 8.25 C19.49987384 9.20071886 21.24975163 10.15143054 22.99987793 11.10168457 C24.80995092 12.08523011 26.61891284 13.07079579 28.42773438 14.05664062 C33.94048477 17.05878111 39.47119955 20.02755837 45 23 C47.14460439 24.15481209 49.28913524 25.30976078 51.43359375 26.46484375 C55.39179389 28.59627401 59.35059664 30.72657618 63.31021118 32.8553772 C65.08386434 33.80899096 66.85738189 34.76285646 68.63085938 35.71679688 C70.84934108 36.91000417 73.06807391 38.10274474 75.28710938 39.29492188 C76.29708984 39.83826172 77.30707031 40.38160156 78.34765625 40.94140625 C79.22429932 41.41263916 80.10094238 41.88387207 81.00415039 42.36938477 C85.0170409 44.55356664 89.00614954 46.78119419 93 49 C93 86.29 93 123.58 93 162 C86.24970881 159.74990294 86.24970881 159.74990294 83.34057617 158.19995117 C82.68937302 157.85586716 82.03816986 157.51178314 81.36723328 157.15727234 C80.34047234 156.60569206 80.34047234 156.60569206 79.29296875 156.04296875 C78.20572258 155.46570793 78.20572258 155.46570793 77.09651184 154.87678528 C74.79118777 153.65132509 72.48937192 152.41942999 70.1875 151.1875 C68.65321003 150.37134005 67.11870665 149.55558113 65.58398438 148.74023438 C58.35196626 144.89263081 51.1412169 141.01438989 44 137 C45.84309783 132.34105826 47.8091671 127.73834756 49.78125 123.1328125 C52.21297218 116.88203946 53.36465309 111.40140859 53.3125 104.75 C53.30758545 104.00492187 53.3026709 103.25984375 53.29760742 102.4921875 C53.03119346 89.85733479 48.57157912 79.26657202 40 70 C39.01 69.505 39.01 69.505 38 69 C38.76712329 64.39726027 38.76712329 64.39726027 40.0625 62.1875 C41.87954574 57.94772662 41.44223258 53.32669774 40 49 C34.17241039 47.68032989 34.17241039 47.68032989 28.75 49.375 C26.95410484 51.83231985 26.95410484 51.83231985 26.21875 54.23828125 C25.08740971 57.09856498 24.23749476 58.85808754 22 61 C17.89224162 61.86179808 14.08950394 62.02931307 9.91015625 62 C5.62903197 61.89286238 5.62903197 61.89286238 0 63 C0 42.21 0 21.42 0 0 Z " fill="#FD9700" transform="translate(154,81)"/>
<path d="M0 0 C0 20.79 0 41.58 0 63 C-1.98 62.67 -3.96 62.34 -6 62 C-7.43276943 61.86876943 -8.86800203 61.76095374 -10.3046875 61.68359375 C-11.42617188 61.62075195 -11.42617188 61.62075195 -12.5703125 61.55664062 C-13.33085937 61.51732422 -14.09140625 61.47800781 -14.875 61.4375 C-16.050625 61.37272461 -16.050625 61.37272461 -17.25 61.30664062 C-19.16650649 61.20146649 -21.08323333 61.10032075 -23 61 C-23.40992188 60.14535156 -23.81984375 59.29070312 -24.2421875 58.41015625 C-24.78101563 57.30542969 -25.31984375 56.20070312 -25.875 55.0625 C-26.40867187 53.96035156 -26.94234375 52.85820312 -27.4921875 51.72265625 C-28.71659845 48.90595489 -28.71659845 48.90595489 -31 48 C-34.15863501 47.72533609 -36.41353643 47.76850122 -39.375 48.9375 C-41.65461121 51.83085268 -41.48638185 54.1100064 -41.33984375 57.71484375 C-40.87305796 60.85357575 -39.56289592 63.26493213 -38 66 C-38 66.99 -38 67.98 -38 69 C-39.299375 69.99 -39.299375 69.99 -40.625 71 C-48.6970568 77.41184653 -51.64411603 88.19762576 -53 98 C-54.32004327 111.6404471 -51.28214632 123.40250772 -44 135 C-44 135.66 -44 136.32 -44 137 C-44.96188232 137.50861572 -45.92376465 138.01723145 -46.91479492 138.54125977 C-50.54754141 140.46231886 -54.17994533 142.38402495 -57.81225586 144.3059082 C-59.37238655 145.13127491 -60.93260517 145.95647544 -62.49291992 146.78149414 C-64.75984532 147.98017376 -67.02642318 149.17950861 -69.29296875 150.37890625 C-70.03352509 150.77026764 -70.77408142 151.16162903 -71.53707886 151.56484985 C-75.01735723 153.40697144 -78.48993644 155.26069609 -81.94384766 157.15185547 C-82.54610672 157.4807225 -83.14836578 157.80958954 -83.76887512 158.14842224 C-85.37693565 159.02887901 -86.98215612 159.91451729 -88.5871582 160.80053711 C-91 162 -91 162 -93 162 C-93 124.71 -93 87.42 -93 49 C-81.78 43.06 -70.56 37.12 -59 31 C-50.76206396 26.51985849 -50.76206396 26.51985849 -42.53515625 22.01953125 C-34.54003148 17.64248635 -26.4925578 13.36200628 -18.44970703 9.07348633 C-11.57745483 5.41075482 -11.57745483 5.41075482 -4.80859375 1.5625 C-2 0 -2 0 0 0 Z " fill="#FDDD00" transform="translate(358,81)"/>
<path d="M0 0 C3.41398714 1.36559486 6.51362846 2.71247349 9.74609375 4.3984375 C10.65383545 4.87128174 11.56157715 5.34412598 12.49682617 5.83129883 C13.95245972 6.59543091 13.95245972 6.59543091 15.4375 7.375 C16.45884033 7.90955811 17.48018066 8.44411621 18.5324707 8.99487305 C26.18441859 13.01381018 33.78460384 17.12179345 41.36157227 21.2800293 C46.57420598 24.13863004 51.79925813 26.97224491 57.04296875 29.7734375 C57.65059555 30.09811508 58.25822235 30.42279266 58.88426208 30.75730896 C61.84031233 32.33604436 64.79766906 33.91224606 67.7565918 35.4855957 C76.58596398 40.19584595 85.27086558 45.08986189 94 50 C94 87.29 94 124.58 94 163 C90.02247543 161.67415848 87.10464244 160.66783933 83.5859375 158.70703125 C82.75755371 158.24965576 81.92916992 157.79228027 81.07568359 157.32104492 C80.18445801 156.8232251 79.29323242 156.32540527 78.375 155.8125 C76.39640655 154.72031508 74.41721083 153.62922072 72.4375 152.5390625 C70.86742187 151.6732959 70.86742187 151.6732959 69.265625 150.79003906 C63.65696119 147.71567281 58.01558463 144.70277792 52.375 141.6875 C51.21669678 141.06689697 50.05839355 140.44629395 48.86499023 139.80688477 C43.27728028 136.81380717 37.68487395 133.83003361 32.08154297 130.86628723 C29.48925423 129.49443741 26.89909849 128.1185889 24.30914307 126.74234009 C23.07091593 126.08583541 21.83163067 125.43132222 20.59124756 124.77890015 C18.8694336 123.87314298 17.15142356 122.96016581 15.43359375 122.046875 C14.45447021 121.52963867 13.47534668 121.01240234 12.46655273 120.47949219 C10.26245763 119.15742782 8.69400412 117.91176901 7 116 C8.09957031 115.82984375 9.19914062 115.6596875 10.33203125 115.484375 C26.07359262 112.95059387 41.05690737 109.03013838 51.56640625 96.05078125 C54.63568574 91.66012258 56.82001335 87.22896044 58 82 C59.21236328 81.94392578 59.21236328 81.94392578 60.44921875 81.88671875 C61.51785156 81.82097656 62.58648437 81.75523437 63.6875 81.6875 C64.74324219 81.62949219 65.79898438 81.57148438 66.88671875 81.51171875 C70.26507231 80.95643103 72.24919046 80.0073475 75 78 C76.42041821 75.15916359 76.31452272 73.14522722 76 70 C73.69696882 66.84122906 72.43968936 66.07759224 68.546875 65.390625 C67.29390625 65.34421875 66.0409375 65.2978125 64.75 65.25 C62.85507812 65.16492188 62.85507812 65.16492188 60.921875 65.078125 C59.95765625 65.05234375 58.9934375 65.0265625 58 65 C57.505 63.1128125 57.505 63.1128125 57 61.1875 C53.52120493 50.9129192 46.48504408 43.09406563 37 38 C29.93441316 34.87060514 23.002444 32.03216095 15.234375 31.68359375 C14.43225586 31.64548584 13.63013672 31.60737793 12.80371094 31.56811523 C11.79598633 31.52501221 10.78826172 31.48190918 9.75 31.4375 C4.92375 31.2209375 4.92375 31.2209375 0 31 C0 20.77 0 10.54 0 0 Z " fill="#FC9600" transform="translate(290,328)"/>
<path d="M0 0 C0 10.23 0 20.46 0 31 C-3.031875 31.0825 -6.06375 31.165 -9.1875 31.25 C-21.93807936 31.79673393 -32.44996326 34.60563796 -43 42 C-43.63550781 42.42796875 -44.27101562 42.8559375 -44.92578125 43.296875 C-51.60850074 48.33484534 -56.81291125 56.70559781 -58 65 C-58.96421875 65.02578125 -59.9284375 65.0515625 -60.921875 65.078125 C-62.18515625 65.13484375 -63.4484375 65.1915625 -64.75 65.25 C-66.00296875 65.29640625 -67.2559375 65.3428125 -68.546875 65.390625 C-72.44246482 66.07808203 -73.67527919 66.86019189 -76 70 C-76.73507959 73.83874899 -76.32386153 75.46023078 -74.3125 78.8125 C-69.2370903 82.16418565 -63.96303626 81.90396281 -58 82 C-57.79246094 82.61746094 -57.58492187 83.23492187 -57.37109375 83.87109375 C-53.30932666 95.03670455 -47.09611382 101.8524458 -37 108 C-36.36449219 108.40089844 -35.72898438 108.80179687 -35.07421875 109.21484375 C-26.7439094 113.94189295 -16.40730291 115.05926971 -7 116 C-10.78070541 119.23353946 -14.7532729 121.63235363 -19.15234375 123.90625 C-20.18418037 124.44817741 -20.18418037 124.44817741 -21.23686218 125.00105286 C-22.70653321 125.77233071 -24.17744059 126.54125654 -25.6494751 127.30801392 C-29.51808679 129.32343399 -33.37746851 131.35641122 -37.23828125 133.38671875 C-38.00154724 133.78747116 -38.76481323 134.18822357 -39.5512085 134.60112 C-45.60626284 137.78309111 -51.62761564 141.02301013 -57.625 144.3125 C-58.46506592 144.77237305 -59.30513184 145.23224609 -60.1706543 145.70605469 C-63.85355664 147.7235985 -67.53459156 149.74454122 -71.21582031 151.76513672 C-74.55837811 153.59742143 -77.9039542 155.42409442 -81.25 157.25 C-82.29365723 157.82403564 -83.33731445 158.39807129 -84.41259766 158.98950195 C-85.37472168 159.51374756 -86.3368457 160.03799316 -87.328125 160.578125 C-88.1830957 161.04637695 -89.03806641 161.51462891 -89.91894531 161.99707031 C-92 163 -92 163 -94 163 C-94 125.71 -94 88.42 -94 50 C-68.95101553 36.33691756 -68.95101553 36.33691756 -58.25 30.625 C-55.87490353 29.35434648 -53.49990416 28.08351278 -51.125 26.8125 C-49.93489709 26.1757789 -48.74479293 25.53906014 -47.5546875 24.90234375 C-41.78402528 21.81442219 -36.01536258 18.72280676 -30.25 15.625 C-29.17717773 15.04878906 -28.10435547 14.47257812 -26.99902344 13.87890625 C-20.12509826 10.17575278 -13.29235276 6.40800306 -6.54003906 2.48681641 C-2.21064675 0 -2.21064675 0 0 0 Z " fill="#FDDD00" transform="translate(222,328)"/>
<path d="M0 0 C0.15855469 0.75023437 0.31710938 1.50046875 0.48046875 2.2734375 C2.54050445 11.31027919 4.9193369 19.3833612 11.875 25.8125 C13.67578125 27.48046875 13.67578125 27.48046875 15 29 C15.07286209 32.06020787 14.19809196 33.59281098 12.875 36.3125 C11.57251145 40.31300054 12.07016413 42.88215544 13 47 C14.48130668 49.23608998 14.48130668 49.23608998 17 50 C20.55125329 50.24285895 20.55125329 50.24285895 24 49 C26.54457895 45.96064181 27.85817815 43.50110388 28.9375 39.6875 C31 37 31 37 33.65625 36.54296875 C35.92095763 36.42703729 38.18679603 36.33196869 40.453125 36.25390625 C52.14220004 35.41713326 63.70299875 29.11262345 72 21 C73.87941075 18.51707158 75.65302029 15.98894214 77.38671875 13.40234375 C78.85923762 11.20960983 80.4071913 9.10586487 82 7 C86.33931374 9.28959347 90.67677747 11.58264413 95.01269531 13.87866211 C96.48226632 14.65626467 97.9523044 15.4329853 99.42285156 16.20874023 C108.40368726 20.94726439 117.28178481 25.78893253 126 31 C123.62591385 33.65798139 121.17886206 35.10737615 118.01171875 36.71484375 C117.00713623 37.22966309 116.00255371 37.74448242 114.9675293 38.27490234 C113.88511963 38.82355957 112.80270996 39.3722168 111.6875 39.9375 C103.46703111 44.15641782 95.28472416 48.42379696 87.1875 52.875 C75.28331604 59.41196692 63.32208232 65.84304635 51.32373047 72.20556641 C49.00827162 73.45564886 46.72333984 74.72570356 44.44580078 76.04052734 C43.29966309 76.69102051 42.15352539 77.34151367 40.97265625 78.01171875 C39.945354 78.60815186 38.91805176 79.20458496 37.85961914 79.8190918 C34.49696596 81.20773292 33.39365487 81.20332782 30 80 C27.56402875 78.85084272 25.21281101 77.66578974 22.84765625 76.38671875 C22.15994644 76.0212796 21.47223663 75.65584045 20.76368713 75.27932739 C18.52653183 74.08834961 16.29449213 72.88812192 14.0625 71.6875 C12.50919641 70.85785896 10.95564651 70.02867893 9.40185547 69.19995117 C0.27584499 64.32562036 -8.82630949 59.40711338 -17.89599609 54.42871094 C-26.80087572 49.54248719 -35.76163528 44.76141364 -44.72607422 39.9855957 C-45.85932129 39.38062256 -46.99256836 38.77564941 -48.16015625 38.15234375 C-49.16699463 37.61601318 -50.17383301 37.07968262 -51.21118164 36.52709961 C-53.85053543 35.08184373 -56.43168706 33.5674198 -59 32 C-56.35216928 28.90839877 -53.03647564 27.25158648 -49.48046875 25.41015625 C-48.83323349 25.06910858 -48.18599823 24.72806091 -47.51914978 24.37667847 C-45.41116755 23.26698599 -43.29938327 22.16474728 -41.1875 21.0625 C-38.28125872 19.53630806 -35.37692698 18.00650025 -32.47265625 16.4765625 C-31.38920929 15.90677925 -31.38920929 15.90677925 -30.28387451 15.32548523 C-22.92701303 11.44999013 -15.63830906 7.45406758 -8.37573242 3.40454102 C-7.55306885 2.95006592 -6.73040527 2.49559082 -5.8828125 2.02734375 C-5.17527832 1.63281006 -4.46774414 1.23827637 -3.73876953 0.83178711 C-2 0 -2 0 0 0 Z " fill="#FCE839" transform="translate(86,282)"/>
<path d="M0 0 C4.0384706 1.25342052 7.64972189 2.74132531 11.359375 4.765625 C12.38111816 5.31976074 13.40286133 5.87389648 14.45556641 6.44482422 C15.54272949 7.04053223 16.62989258 7.63624023 17.75 8.25 C19.47249664 9.18598424 21.19499779 10.12196029 22.91775513 11.0574646 C24.71709777 12.0352762 26.51532769 13.01511233 28.31347656 13.99511719 C34.40474249 17.31169374 40.51641828 20.59046913 46.625 23.875 C48.82560088 25.05974717 51.0261292 26.24462912 53.2265625 27.4296875 C54.15033691 27.92710449 55.07411133 28.42452148 56.02587891 28.93701172 C56.67733887 29.28779785 57.32879883 29.63858398 58 30 C58 30.99 58 31.98 58 33 C56.94594971 33.54188965 56.94594971 33.54188965 55.87060547 34.09472656 C42.03242623 41.21741807 28.25907972 48.42821378 14.6171875 55.921875 C7.17872367 60.00730411 -0.29346479 64.03032765 -7.77441406 68.03735352 C-12.47295235 70.5544276 -17.16408517 73.0765723 -21.8046875 75.69921875 C-22.4963501 76.0849707 -23.1880127 76.47072266 -23.90063477 76.86816406 C-25.65412179 77.8489166 -27.3997428 78.84369841 -29.14453125 79.83984375 C-32.53333572 81.21669044 -33.53372686 80.98983282 -37 80 C-39.22283573 78.95640609 -41.41148046 77.83881609 -43.57421875 76.67578125 C-44.20659958 76.33800659 -44.83898041 76.00023193 -45.49052429 75.65222168 C-47.55954852 74.54513115 -49.62349553 73.42891692 -51.6875 72.3125 C-53.13397652 71.53614174 -54.58075751 70.76035048 -56.02783203 69.98510742 C-59.67485262 68.02935841 -63.31781764 66.06619097 -66.95953369 64.10058594 C-69.9644171 62.47981307 -72.97248056 60.8650037 -75.98046875 59.25 C-81.24196404 56.42316441 -86.49871239 53.58762498 -91.75439453 50.75 C-95.23911224 48.87107293 -98.72665905 46.99747911 -102.21484375 45.125 C-103.41424361 44.48074706 -104.61362532 43.83646031 -105.81298828 43.19213867 C-108.08823403 41.97007107 -110.36392603 40.74883382 -112.64013672 39.52856445 C-113.66252441 38.979021 -114.68491211 38.42947754 -115.73828125 37.86328125 C-117.08466675 37.14072144 -117.08466675 37.14072144 -118.45825195 36.40356445 C-121.0104602 34.99422383 -123.50952296 33.51534592 -126 32 C-123.27517484 28.77912812 -119.73522587 27.08193314 -116.05859375 25.1640625 C-115.37628189 24.80283295 -114.69397003 24.44160339 -113.99098206 24.06942749 C-111.80916743 22.91612243 -109.62336415 21.77060786 -107.4375 20.625 C-105.99388715 19.86245885 -104.55052512 19.09944265 -103.10742188 18.3359375 C-95.78232771 14.4679155 -88.43587692 10.65195957 -81 7 C-80.40227783 8.04341553 -80.40227783 8.04341553 -79.79248047 9.10791016 C-73.03622978 20.80741833 -64.90951075 29.26804041 -52.046875 34.265625 C-49.43642046 34.89481148 -47.23879496 35.16037301 -44.578125 35.296875 C-31.9972974 35.95699993 -31.9972974 35.95699993 -28.61328125 39.49609375 C-27.0625 42.5 -27.0625 42.5 -25.97265625 45.46875 C-25.16049881 48.31024157 -25.16049881 48.31024157 -22 50 C-17.10242611 49.82666872 -17.10242611 49.82666872 -13.0625 47.3125 C-11.65388972 44.24670116 -11.60492237 42.35815986 -12 39 C-12.515625 37.80375 -13.03125 36.6075 -13.5625 35.375 C-15.29820412 31.29986859 -15.29820412 31.29986859 -14 28 C-12.546875 26.2109375 -12.546875 26.2109375 -10.75 24.375 C-4.28479803 17.20619289 -1.3508955 9.47643114 0 0 Z " fill="#FCE839" transform="translate(426,282)"/>
<path d="M0 0 C4.89723527 3.63093169 9.57358535 7.27781357 12 13 C11.24074219 13.03738281 10.48148437 13.07476562 9.69921875 13.11328125 C8.70535156 13.17902344 7.71148437 13.24476563 6.6875 13.3125 C5.70136719 13.37050781 4.71523438 13.42851562 3.69921875 13.48828125 C0.71231196 14.05453999 -0.26631121 14.54058102 -2 17 C-2.63896758 21.31303119 -2.51115991 23.26520763 0 26.875 C3.87218174 29.6177954 6.30964199 29.76150722 11 30 C7.15214484 37.93620127 0.34259301 42.32675734 -7.703125 45.2734375 C-18.22844276 48.60287475 -29.1277887 48.06107035 -39 43 C-44.28963277 39.77549783 -48.31149855 35.95642382 -52 31 C-52 30.67 -52 30.34 -52 30 C-51.31292969 29.89042969 -50.62585938 29.78085937 -49.91796875 29.66796875 C-49.01691406 29.50941406 -48.11585938 29.35085938 -47.1875 29.1875 C-46.29417969 29.03667969 -45.40085937 28.88585937 -44.48046875 28.73046875 C-41.75002116 27.92638419 -40.64769287 27.30247636 -39 25 C-38.5285704 23.05542688 -38.5285704 23.05542688 -38.625 21 C-38.61726563 20.319375 -38.60953125 19.63875 -38.6015625 18.9375 C-39.13003524 16.36767178 -39.87400021 15.52647707 -42 14 C-44.50203648 13.42428504 -44.50203648 13.42428504 -47.1875 13.3125 C-48.08855469 13.24675781 -48.98960937 13.18101562 -49.91796875 13.11328125 C-50.60503906 13.07589844 -51.29210937 13.03851563 -52 13 C-49.71160853 6.01310264 -44.0259133 1.81554798 -37.875 -1.875 C-25.12887721 -6.86261327 -12.0714937 -6.76877037 0 0 Z " fill="#9C9C9C" transform="translate(319,380)"/>
<path d="M0 0 C4.82689461 3.24183709 8.79842282 6.67943208 12.12890625 11.453125 C12.12890625 12.113125 12.12890625 12.773125 12.12890625 13.453125 C11.44183594 13.49050781 10.75476563 13.52789062 10.046875 13.56640625 C9.14582031 13.63214844 8.24476563 13.69789063 7.31640625 13.765625 C6.42308594 13.82363281 5.52976563 13.88164062 4.609375 13.94140625 C1.75820688 14.52959999 0.79191481 15.08591085 -0.87109375 17.453125 C-1.34252335 19.39769812 -1.34252335 19.39769812 -1.24609375 21.453125 C-1.25382812 22.13375 -1.2615625 22.814375 -1.26953125 23.515625 C-0.74136129 26.08398089 0.02258333 26.90422377 2.12890625 28.453125 C4.62334399 29.24110555 4.62334399 29.24110555 7.31640625 29.640625 C8.66798828 29.87845703 8.66798828 29.87845703 10.046875 30.12109375 C10.73394531 30.23066406 11.42101562 30.34023438 12.12890625 30.453125 C7.13553286 38.8419923 1.03421176 43.25963753 -8.20703125 46.53125 C-19.23584374 49.30608982 -29.96091426 48.32855088 -39.87109375 42.453125 C-44.53471693 39.13492309 -48.33883956 35.67589927 -50.87109375 30.453125 C-49.84048828 30.30617188 -49.84048828 30.30617188 -48.7890625 30.15625 C-47.88800781 30.00671875 -46.98695313 29.8571875 -46.05859375 29.703125 C-45.16527344 29.56390625 -44.27195313 29.4246875 -43.3515625 29.28125 C-40.30311784 28.26350155 -39.42431051 27.23070155 -37.87109375 24.453125 C-37.29080445 19.86803311 -37.29080445 19.86803311 -39.0390625 15.78125 C-41.5395587 13.96852354 -43.49871941 13.94561761 -46.55859375 13.765625 C-47.55246094 13.69988281 -48.54632813 13.63414062 -49.5703125 13.56640625 C-50.32957031 13.52902344 -51.08882812 13.49164063 -51.87109375 13.453125 C-46.56361986 4.38619044 -38.93419667 -1.13277233 -28.9140625 -4.1328125 C-19.48508844 -6.04384739 -8.44011562 -4.5473276 0 0 Z " fill="#7D8C92" transform="translate(232.87109375,379.546875)"/>
<path d="M0 0 C0.07010965 14.25582865 0.12279822 28.51163053 0.15543652 42.76759624 C0.17110031 49.38703575 0.19235193 56.00635953 0.22631836 62.62573242 C0.25888586 69.01236422 0.27684764 75.39888462 0.28463173 81.78559303 C0.29017989 84.22367926 0.3010139 86.66175932 0.31719017 89.0997982 C0.33892927 92.51157235 0.34196833 95.92288466 0.34057617 99.3347168 C0.351362 100.34532166 0.36214783 101.35592651 0.3732605 102.39715576 C0.33493784 111.06186621 0.33493784 111.06186621 -3 115 C-5.74536133 116.84594727 -5.74536133 116.84594727 -9.08203125 118.56640625 C-9.6836055 118.88170288 -10.28517975 119.19699951 -10.90498352 119.52185059 C-12.86806608 120.54762271 -14.84009958 121.55477988 -16.8125 122.5625 C-18.18616912 123.27705737 -19.55904726 123.99313727 -20.93115234 124.71069336 C-23.68009716 126.14765835 -26.43164653 127.57942837 -29.18505859 129.0078125 C-34.20504398 131.61992848 -39.16815798 134.33284953 -44.125 137.0625 C-53.83843208 142.38868632 -63.60047153 147.62247503 -73.37353516 152.83813477 C-75.05455322 153.73616821 -75.05455322 153.73616821 -76.76953125 154.65234375 C-77.83381348 155.22065918 -78.8980957 155.78897461 -79.99462891 156.37451172 C-83.46014344 158.24887368 -86.8879111 160.1840091 -90.29956055 162.15454102 C-92 163 -92 163 -94 163 C-94 161.68 -94 160.36 -94 159 C-93.08524902 158.51756836 -92.17049805 158.03513672 -91.22802734 157.53808594 C-65.64878683 144.05924258 -65.64878683 144.05924258 -40.25244141 130.24023438 C-38.08571934 129.0471986 -35.90946017 127.87356051 -33.73046875 126.703125 C-32.46577534 126.01109331 -31.20142415 125.31843567 -29.9375 124.625 C-28.37322266 123.77808594 -28.37322266 123.77808594 -26.77734375 122.9140625 C-22.62131665 120.04985254 -19.62647672 116.87943017 -18 112 C-17.91155932 110.57850376 -17.87801072 109.15320189 -17.87974548 107.72895813 C-17.87837082 106.85817627 -17.87699615 105.98739441 -17.87557983 105.09022522 C-17.87917511 104.13788498 -17.88277039 103.18554474 -17.88647461 102.2043457 C-17.88632858 101.19928986 -17.88618256 100.19423401 -17.8860321 99.15872192 C-17.88672971 95.83105321 -17.89451506 92.50344021 -17.90234375 89.17578125 C-17.90420847 86.8707838 -17.90563212 84.56578595 -17.90663147 82.26078796 C-17.91045241 76.18955392 -17.92027911 70.11834374 -17.93133545 64.04711914 C-17.94155865 57.85368167 -17.94613104 51.66024035 -17.95117188 45.46679688 C-17.96190173 33.31118742 -17.9789731 21.15559569 -18 9 C-15.37785672 7.49480613 -12.75255792 5.99568681 -10.125 4.5 C-9.37863281 4.07074219 -8.63226563 3.64148438 -7.86328125 3.19921875 C-7.14785156 2.79316406 -6.43242187 2.38710938 -5.6953125 1.96875 C-5.03547363 1.59169922 -4.37563477 1.21464844 -3.69580078 0.82617188 C-2 0 -2 0 0 0 Z " fill="#FBBF07" transform="translate(495,328)"/>
<path d="M0 0 C9.33786778 0.77815565 15.41916863 4.61953203 21.8828125 11.3515625 C30.6734701 22.34799396 32.50518461 34.37197715 31 48 C29.79998878 51.73430064 28.28820948 54.82102325 26 58 C23.00022122 56.50011061 22.44411857 53.94840874 21 51 C19.00442887 48.5717978 19.00442887 48.5717978 15.0625 48.6875 C12.53146054 48.76544868 11.27250992 48.84176843 9.0625 50.125 C6.73864476 54.22592101 6.84296307 57.35091404 7.9375 61.875 C8.288125 62.90625 8.63875 63.9375 9 65 C0.22996638 64.26916386 -7.03525835 60.51209442 -13 54 C-19.7254268 44.96825178 -23.81731378 34.37561821 -23.47265625 23.046875 C-22.6346558 17.6448886 -20.41637463 12.8672689 -18 8 C-17.01 8 -16.02 8 -15 8 C-14.73445313 8.56589844 -14.46890625 9.13179687 -14.1953125 9.71484375 C-13.84210938 10.44832031 -13.48890625 11.18179688 -13.125 11.9375 C-12.60292969 13.03384766 -12.60292969 13.03384766 -12.0703125 14.15234375 C-11.1315023 16.16332459 -11.1315023 16.16332459 -9 17 C-5.84136499 17.27466391 -3.58646357 17.23149878 -0.625 16.0625 C2.01910327 12.70652277 1.38151822 9.11031895 1 5 C0.57549372 2.10913026 0.57549372 2.10913026 0 0 Z " fill="#7C8B91" transform="translate(378,237)"/>
<path d="M0 0 C-0.165 0.680625 -0.33 1.36125 -0.5 2.0625 C-1.24152845 6.41897965 -1.70646718 10.27798624 0 14.4375 C2.7187184 16.56149875 4.75680003 16.50795557 8.13671875 16.31640625 C10.08289446 16.10659228 10.08289446 16.10659228 11.8125 14.875 C13.41777877 12.34034931 14.73206402 9.71700566 16 7 C20.99435114 11.13325612 22.64524072 15.89971238 23.359375 22.140625 C23.83633976 33.95875174 20.73004951 45.02111359 12.94921875 54.1015625 C7.2046454 59.69647763 -0.73906532 65 -9 65 C-8.67 63.96875 -8.34 62.9375 -8 61.875 C-7.04164891 58.49338973 -6.67883682 55.53279496 -7 52 C-8.62858998 48.89696668 -8.62858998 48.89696668 -11.0234375 48.3125 C-13.42981072 47.99271618 -15.57908349 47.77991668 -18 48 C-20.88028008 50.58486674 -22.43795881 53.48540733 -24 57 C-27 56 -27 56 -28.16796875 54.3125 C-32.09073388 45.41488713 -32.7885134 35.02297793 -30.01171875 25.671875 C-28.82590583 22.98452189 -27.52507001 20.50799085 -26 18 C-25.38125 16.9275 -24.7625 15.855 -24.125 14.75 C-18.1363546 6.99998831 -10.49914495 -0.61649784 0 0 Z " fill="#9B9B9B" transform="translate(168,159)"/>
<path d="M0 0 C9.24515612 0.60294496 16.88228852 4.90242649 23.17578125 11.6171875 C31.30525326 22.23598391 32.9883368 32.92457127 32 46 C31.1072045 49.58444135 30.05396287 52.90875153 28 56 C27.01 56.33 26.02 56.66 25 57 C24.66226563 56.43410156 24.32453125 55.86820313 23.9765625 55.28515625 C23.53054688 54.55167969 23.08453125 53.81820312 22.625 53.0625 C22.18414062 52.33160156 21.74328125 51.60070312 21.2890625 50.84765625 C20.1226016 48.86227728 20.1226016 48.86227728 18 48 C14.45768939 47.61496624 12.63742658 47.58064041 9.625 49.5625 C7.38841102 52.91738347 7.5890804 55.02777718 8 59 C8.91114536 62.32186171 8.91114536 62.32186171 10 65 C0.38598723 63.99768803 -6.48627072 59.81657092 -13.25 53 C-20.13552945 44.1865223 -22.93938197 33.48729593 -22.46484375 22.46875 C-21.81408641 17.61267845 -20.62640177 13.17237739 -18 9 C-17.01 8.34 -16.02 7.68 -15 7 C-14.73445313 7.56589844 -14.46890625 8.13179687 -14.1953125 8.71484375 C-13.84210938 9.44832031 -13.48890625 10.18179688 -13.125 10.9375 C-12.60292969 12.03384766 -12.60292969 12.03384766 -12.0703125 13.15234375 C-11.1315023 15.16332459 -11.1315023 15.16332459 -9 16 C-3.60230764 16.64105615 -3.60230764 16.64105615 1 14.4375 C2.76289385 10.14044624 2.47999607 6.40998845 1 2.0625 C0.67 1.381875 0.34 0.70125 0 0 Z " fill="#9B9B9B" transform="translate(343,159)"/>
<path d="M0 0 C-0.5259375 1.5159375 -0.5259375 1.5159375 -1.0625 3.0625 C-2.16620104 6.97706556 -2.06929438 10.02833514 -1 14 C0.38239295 16.20426487 0.38239295 16.20426487 3 17 C6.05210015 16.93159086 8.99678464 16.53262153 12 16 C12.268125 15.071875 12.53625 14.14375 12.8125 13.1875 C13.94480421 10.14815711 14.69900511 9.09926383 17 7 C17.82011312 8.55851755 18.63076213 10.12201716 19.4375 11.6875 C19.88996094 12.55761719 20.34242188 13.42773438 20.80859375 14.32421875 C24.26822059 22.09420034 23.94441868 30.84491053 20.98046875 38.70703125 C15.69457189 51.06886972 9.8567914 58.49232101 -2.5625 64.171875 C-5 65 -5 65 -9 65 C-8.835 64.360625 -8.67 63.72125 -8.5 63.0625 C-7.83791389 59.00722255 -7.44044454 55.09027164 -8 51 C-10.17529889 48.23904371 -11.54559175 48.06626787 -15 47.5625 C-18.76430523 48.11146118 -19.71244836 49.00251854 -22 52 C-23.06011943 53.96879323 -24.07470849 55.96435867 -25 58 C-28.77674293 54.94263668 -30.61885536 50.55803911 -31.3215332 45.84204102 C-32.18665804 32.56101182 -30.57641326 22.05902618 -21.75 11.625 C-15.54592432 5.17151424 -9.13348717 -0.19855407 0 0 Z " fill="#7D8C92" transform="translate(134,237)"/>
<path d="M0 0 C0 20.79 0 41.58 0 63 C-1.98 62.67 -3.96 62.34 -6 62 C-7.43276943 61.86876943 -8.86800203 61.76095374 -10.3046875 61.68359375 C-11.42617188 61.62075195 -11.42617188 61.62075195 -12.5703125 61.55664062 C-13.33085937 61.51732422 -14.09140625 61.47800781 -14.875 61.4375 C-16.050625 61.37272461 -16.050625 61.37272461 -17.25 61.30664062 C-19.16650649 61.20146649 -21.08323333 61.10032075 -23 61 C-23 60.67 -23 60.34 -23 60 C-21.02 60 -19.04 60 -17 60 C-17 43.5 -17 27 -17 10 C-17.66 9.67 -18.32 9.34 -19 9 C-16.2118978 7.4933028 -13.41896042 5.99580196 -10.625 4.5 C-9.8309375 4.07074219 -9.036875 3.64148438 -8.21875 3.19921875 C-7.45820313 2.79316406 -6.69765625 2.38710937 -5.9140625 1.96875 C-5.2123291 1.59169922 -4.5105957 1.21464844 -3.78759766 0.82617188 C-2 0 -2 0 0 0 Z " fill="#FBBF07" transform="translate(358,81)"/>
<path d="M0 0 C4.43564571 3.59076081 6.35773569 9.47652696 7 15 C7.8774357 27.13429376 3.53098791 37.26824653 -3.1875 47.25 C-8.93936733 52.87404805 -16.79465156 58 -25 58 C-24.34 54.04 -23.68 50.08 -23 46 C-22.34 46.99 -21.68 47.98 -21 49 C-12.49997262 36.84217395 -11.2997023 25.46063583 -11 11 C-9.87207031 10.73058594 -8.74414062 10.46117187 -7.58203125 10.18359375 C-6.39996094 9.79300781 -5.21789062 9.40242187 -4 9 C-2.59155349 6.10809595 -2.59155349 6.10809595 -2 3 C-1.34 2.01 -0.68 1.02 0 0 Z " fill="#525A5E" transform="translate(150,244)"/>
<path d="M0 0 C4.99435114 4.13325612 6.64524072 8.89971238 7.359375 15.140625 C7.83633976 26.95875174 4.73004951 38.02111359 -3.05078125 47.1015625 C-8.7953546 52.69647763 -16.73906532 58 -25 58 C-23.82992364 52.92966912 -22.60865737 50.60199933 -19 47 C-11.53937343 34.98803426 -10.63588413 23.85663174 -11 10 C-9.9275 9.835 -8.855 9.67 -7.75 9.5 C-5.15625719 8.79500702 -4.21855238 8.30861863 -2.64453125 6.0859375 C-1.6642 4.08280578 -0.78181017 2.08806442 0 0 Z " fill="#6E6E6E" transform="translate(184,166)"/>
<path d="M0 0 C9.33786778 0.77815565 15.41916863 4.61953203 21.8828125 11.3515625 C30.6734701 22.34799396 32.50518461 34.37197715 31 48 C29.79998878 51.73430064 28.28820948 54.82102325 26 58 C23.00022122 56.50011061 22.44411857 53.94840874 21 51 C18.4345406 48.4345406 16.52313332 48.45953913 13 48 C13.33 47.01 13.66 46.02 14 45 C15.41910514 32.06520564 11.4212476 19.5134341 4 9 C3.01 10.485 3.01 10.485 2 12 C1.34 8.04 0.68 4.08 0 0 Z " fill="#525A5E" transform="translate(378,237)"/>
<path d="M0 0 C9.24515612 0.60294496 16.88228852 4.90242649 23.17578125 11.6171875 C31.30525326 22.23598391 32.9883368 32.92457127 32 46 C31.1072045 49.58444135 30.05396287 52.90875153 28 56 C26.515 56.495 26.515 56.495 25 57 C24.69707031 56.44570312 24.39414062 55.89140625 24.08203125 55.3203125 C23.66308594 54.59585938 23.24414062 53.87140625 22.8125 53.125 C22.40644531 52.40570313 22.00039063 51.68640625 21.58203125 50.9453125 C19.64228768 48.56014633 17.89166895 47.92339008 15 47 C14.98582031 45.93523437 14.97164063 44.87046875 14.95703125 43.7734375 C14.56347302 29.19995937 10.65153778 17.80901718 2.671875 5.64453125 C1 3 1 3 0 0 Z " fill="#6E6E6E" transform="translate(343,159)"/>
<path d="M0 0 C13.06977962 -0.81347176 23.41143367 0.64087221 33.6875 9.5625 C36.47986556 12.19948024 38.49564848 14.4523047 40 18 C39.24074219 18.03738281 38.48148437 18.07476562 37.69921875 18.11328125 C36.70535156 18.17902344 35.71148437 18.24476563 34.6875 18.3125 C33.70136719 18.37050781 32.71523438 18.42851562 31.69921875 18.48828125 C28.71231196 19.05453999 27.73368879 19.54058102 26 22 C25.36103242 26.31303119 25.48884009 28.26520763 28 31.875 C31.87218174 34.6177954 34.30964199 34.76150722 39 35 C35.15214484 42.93620127 28.34259301 47.32675734 20.296875 50.2734375 C19.53890625 50.51320313 18.7809375 50.75296875 18 51 C17.08734375 51.29583984 17.08734375 51.29583984 16.15625 51.59765625 C13.00969374 52.18478541 9.94644537 52.09209672 6.75 52.0625 C5.48671875 52.05347656 4.2234375 52.04445313 2.921875 52.03515625 C1.95765625 52.02355469 0.9934375 52.01195312 0 52 C0 51.67 0 51.34 0 51 C0.7734375 51.03222656 1.546875 51.06445312 2.34375 51.09765625 C8.83318861 51.03500736 8.83318861 51.03500736 14.47265625 48.140625 C20.55735125 41.36216104 23.59110253 35.34465243 23.5625 26.25 C23.56008301 25.45376221 23.55766602 24.65752441 23.55517578 23.8371582 C23.34070989 16.95953149 21.59736877 12.22380008 17 7 C16.55527344 6.44828125 16.11054688 5.8965625 15.65234375 5.328125 C11.38084072 0.89472827 5.76195082 1.1127784 0 1 C0 0.67 0 0.34 0 0 Z " fill="#6C6C6C" transform="translate(291,375)"/>
<path d="M0 0 C10.43029723 0.48288413 17.85379929 4.34091407 25 12 C26.5 14.9375 26.5 14.9375 27 17 C26.31292969 17.03738281 25.62585938 17.07476562 24.91796875 17.11328125 C24.01691406 17.17902344 23.11585938 17.24476563 22.1875 17.3125 C21.29417969 17.37050781 20.40085938 17.42851562 19.48046875 17.48828125 C16.62930063 18.07647499 15.66300856 18.63278585 14 21 C13.5285704 22.94457312 13.5285704 22.94457312 13.625 25 C13.61726563 25.680625 13.60953125 26.36125 13.6015625 27.0625 C14.12973246 29.63085589 14.89367708 30.45109877 17 32 C19.49443774 32.78798055 19.49443774 32.78798055 22.1875 33.1875 C23.53908203 33.42533203 23.53908203 33.42533203 24.91796875 33.66796875 C25.60503906 33.77753906 26.29210937 33.88710938 27 34 C22.00258597 42.39565558 15.91489894 46.74003395 6.7109375 50.09765625 C0.16688473 51.68889434 -6.31709327 51.38604724 -13 51 C-13 50.67 -13 50.34 -13 50 C-12.14277344 50.020625 -11.28554687 50.04125 -10.40234375 50.0625 C-3.7413503 50.02342671 -3.7413503 50.02342671 2.28125 47.5390625 C8.01617027 41.37653852 11.12542729 33.24895114 11.4375 24.875 C11.00075805 16.23569835 8.02652136 10.43045909 2.5234375 3.84765625 C1 2 1 2 0 0 Z " fill="#51595D" transform="translate(218,376)"/>
<path d="M0 0 C0 10.23 0 20.46 0 31 C-5.61 31 -11.22 31 -17 31 C-17.33 23.74 -17.66 16.48 -18 9 C-15.40125 7.515 -12.8025 6.03 -10.125 4.5 C-9.30789551 4.03013672 -8.49079102 3.56027344 -7.64892578 3.07617188 C-7.0042334 2.71072266 -6.35954102 2.34527344 -5.6953125 1.96875 C-5.03547363 1.59169922 -4.37563477 1.21464844 -3.69580078 0.82617188 C-2 0 -2 0 0 0 Z " fill="#F6BB07" transform="translate(222,328)"/>
<path d="M0 0 C1.04414063 0.17402344 2.08828125 0.34804688 3.1640625 0.52734375 C4.22367187 0.68332031 5.28328125 0.83929688 6.375 1 C7.17164063 1.15339844 7.96828125 1.30679687 8.7890625 1.46484375 C5.00835709 4.69838321 1.0357896 7.09719738 -3.36328125 9.37109375 C-4.05117233 9.73237869 -4.73906342 10.09366364 -5.44779968 10.46589661 C-6.91747071 11.23717446 -8.38837809 12.00610029 -9.8604126 12.77285767 C-13.72902429 14.78827774 -17.58840601 16.82125497 -21.44921875 18.8515625 C-22.21248474 19.25231491 -22.97575073 19.65306732 -23.762146 20.06596375 C-29.81720034 23.24793486 -35.83855314 26.48785388 -41.8359375 29.77734375 C-43.09603638 30.46715332 -43.09603638 30.46715332 -44.3815918 31.17089844 C-48.06449414 33.18844225 -51.74552906 35.20938497 -55.42675781 37.22998047 C-58.76931561 39.06226518 -62.1148917 40.88893817 -65.4609375 42.71484375 C-66.50459473 43.28887939 -67.54825195 43.86291504 -68.62353516 44.4543457 C-70.06672119 45.24071411 -70.06672119 45.24071411 -71.5390625 46.04296875 C-72.3940332 46.5112207 -73.24900391 46.97947266 -74.12988281 47.46191406 C-76.2109375 48.46484375 -76.2109375 48.46484375 -78.2109375 48.46484375 C-78.2109375 47.14484375 -78.2109375 45.82484375 -78.2109375 44.46484375 C-77.634646 44.16940674 -77.05835449 43.87396973 -76.46459961 43.56958008 C-64.4586355 37.39910873 -52.58214975 31.06502603 -40.87890625 24.33666992 C-35.92995216 21.5083935 -30.95264989 18.79103554 -25.86328125 16.22265625 C-24.82300781 15.69607422 -23.78273437 15.16949219 -22.7109375 14.62695312 C-20.72961347 13.63250031 -18.74166072 12.65110048 -16.74609375 11.68554688 C-12.30048112 9.45318695 -9.01783444 7.58552596 -5.95703125 3.609375 C-3.57275777 0.51722406 -3.57275777 0.51722406 0 0 Z " fill="#F4BA07" transform="translate(206.2109375,442.53515625)"/>
</svg>
